<svg width="25" height="25" viewBox="0 0 25 25" fill="none" xmlns="http://www.w3.org/2000/svg">
<g id="Group 1">
<g id="Group">
<g id="Group_2">
<path id="Vector" d="M21.5014 5.11405C20.3649 4.75569 19.1157 4.60211 17.9178 4.60211C15.9212 4.60211 13.7711 5.01166 12.2865 6.13792C10.8019 5.01166 8.65173 4.60211 6.65518 4.60211C4.65862 4.60211 2.50848 5.01166 1.02386 6.13792V21.1377C1.02386 21.3937 1.27983 21.6496 1.5358 21.6496C1.63819 21.6496 1.68938 21.5984 1.79177 21.5984C3.174 20.9329 5.17056 20.4722 6.65518 20.4722C8.65173 20.4722 10.8019 20.8817 12.2865 22.008C13.6687 21.1377 16.1772 20.4722 17.9178 20.4722C19.6072 20.4722 21.3478 20.7793 22.7812 21.5472C22.8836 21.5984 22.9348 21.5984 23.0372 21.5984C23.2931 21.5984 23.5491 21.3425 23.5491 21.0865V6.13792C22.9348 5.67718 22.2693 5.37002 21.5014 5.11405ZM21.5014 18.9364C20.3751 18.578 19.1465 18.4244 17.9178 18.4244C16.1772 18.4244 13.6687 19.0899 12.2865 19.9602V8.18567C13.6687 7.31538 16.1772 6.64986 17.9178 6.64986C19.1465 6.64986 20.3751 6.80344 21.5014 7.1618V18.9364Z" fill="#737373"/>
<g id="Group_3">
<path id="Vector_2" d="M17.9178 10.7454C18.8188 10.7454 19.6891 10.8376 20.4775 11.0116V9.45532C19.6686 9.30174 18.7983 9.20959 17.9178 9.20959C16.1772 9.20959 14.6004 9.50652 13.3104 10.0594V11.759C14.4673 11.1038 16.0748 10.7454 17.9178 10.7454Z" fill="#737373"/>
<path id="Vector_3" d="M13.3104 12.783V14.4827C14.4673 13.8274 16.0748 13.469 17.9178 13.469C18.8188 13.469 19.6891 13.5612 20.4775 13.7352V12.179C19.6686 12.0254 18.7983 11.9332 17.9178 11.9332C16.1772 11.9332 14.6004 12.2404 13.3104 12.783Z" fill="#737373"/>
<path id="Vector_4" d="M17.9178 14.6669C16.1772 14.6669 14.6004 14.9638 13.3104 15.5167V17.2163C14.4673 16.561 16.0748 16.2027 17.9178 16.2027C18.8188 16.2027 19.6891 16.2948 20.4775 16.4689V14.9126C19.6686 14.7488 18.7983 14.6669 17.9178 14.6669Z" fill="#737373"/>
</g>
</g>
</g>
</g>
</svg>
