<svg width="26" height="20" viewBox="0 0 26 20" fill="none" xmlns="http://www.w3.org/2000/svg">
<path id="Vector" d="M1.40278 9.60485C1.00532 9.60485 0.672398 9.47499 0.404 9.21528C0.134667 8.95647 0 8.63543 0 8.25217V2.16512C0 1.78186 0.134667 1.46037 0.404 1.20066C0.672398 0.941845 1.00532 0.812439 1.40278 0.812439H6.06701C6.46447 0.812439 6.79786 0.941845 7.06719 1.20066C7.33559 1.46037 7.46979 1.78186 7.46979 2.16512V8.25217C7.46979 8.63543 7.33559 8.95647 7.06719 9.21528C6.79786 9.47499 6.46447 9.60485 6.06701 9.60485H1.40278ZM10.2753 9.60485C9.87789 9.60485 9.54497 9.47499 9.27657 9.21528C9.00724 8.95647 8.87257 8.63543 8.87257 8.25217V2.16512C8.87257 1.78186 9.00724 1.46037 9.27657 1.20066C9.54497 0.941845 9.87789 0.812439 10.2753 0.812439H14.9747C15.3721 0.812439 15.7055 0.941845 15.9748 1.20066C16.2432 1.46037 16.3774 1.78186 16.3774 2.16512V8.25217C16.3774 8.63543 16.2432 8.95647 15.9748 9.21528C15.7055 9.47499 15.3721 9.60485 14.9747 9.60485H10.2753ZM19.183 9.60485C18.7855 9.60485 18.4526 9.47499 18.1842 9.21528C17.9149 8.95647 17.7802 8.63543 17.7802 8.25217V2.16512C17.7802 1.78186 17.9149 1.46037 18.1842 1.20066C18.4526 0.941845 18.7855 0.812439 19.183 0.812439H23.8472C24.2447 0.812439 24.5776 0.941845 24.846 1.20066C25.1153 1.46037 25.25 1.78186 25.25 2.16512V8.25217C25.25 8.63543 25.1153 8.95647 24.846 9.21528C24.5776 9.47499 24.2447 9.60485 23.8472 9.60485H19.183ZM1.40278 19.7499C1.00532 19.7499 0.672398 19.6201 0.404 19.3604C0.134667 19.1016 0 18.7805 0 18.3973V12.3102C0 11.9269 0.134667 11.6055 0.404 11.3457C0.672398 11.0869 1.00532 10.9575 1.40278 10.9575H6.06701C6.46447 10.9575 6.79786 11.0869 7.06719 11.3457C7.33559 11.6055 7.46979 11.9269 7.46979 12.3102V18.3973C7.46979 18.7805 7.33559 19.1016 7.06719 19.3604C6.79786 19.6201 6.46447 19.7499 6.06701 19.7499H1.40278ZM10.2753 19.7499C9.87789 19.7499 9.54497 19.6201 9.27657 19.3604C9.00724 19.1016 8.87257 18.7805 8.87257 18.3973V12.3102C8.87257 11.9269 9.00724 11.6055 9.27657 11.3457C9.54497 11.0869 9.87789 10.9575 10.2753 10.9575H14.9747C15.3721 10.9575 15.7055 11.0869 15.9748 11.3457C16.2432 11.6055 16.3774 11.9269 16.3774 12.3102V18.3973C16.3774 18.7805 16.2432 19.1016 15.9748 19.3604C15.7055 19.6201 15.3721 19.7499 14.9747 19.7499H10.2753ZM19.183 19.7499C18.7855 19.7499 18.4526 19.6201 18.1842 19.3604C17.9149 19.1016 17.7802 18.7805 17.7802 18.3973V12.3102C17.7802 11.9269 17.9149 11.6055 18.1842 11.3457C18.4526 11.0869 18.7855 10.9575 19.183 10.9575H23.8472C24.2447 10.9575 24.5776 11.0869 24.846 11.3457C25.1153 11.6055 25.25 11.9269 25.25 12.3102V18.3973C25.25 18.7805 25.1153 19.1016 24.846 19.3604C24.5776 19.6201 24.2447 19.7499 23.8472 19.7499H19.183Z" fill="#737373"/>
</svg>
